# xmcd CD database file
#
# Track frame offsets:
#	150
#	19424
#	39808
#	48979
#	61250
#	77475
#	94007
#	110111
#	121724
#	138196
#	152618
#	173819
#
# Disc length: 2439 seconds
#
# Revision: 2
# Processed by: cddbd v1.5.2PL0 Copyright (c) Steve Scherf et al.
# Submitted via: CDex 1.70beta2
#
DISCID=8b09850c
DTITLE=Various Artist - Dixieland Greats
DYEAR=2000
DGENRE=Jazz
TTITLE0=Dave Shepherd's Dixielanders - Do You Know What It Means To Miss New Orleans
TTITLE1=Huumphrey Lyttleton And His Band - St James Infirmary
TTITLE2=The Dukes of Dixieland - Ain't She Sweet
TTITLE3=Alex Welsh - Loch Lomond
TTITLE4=Monty Sunshine - Jus A Closer Walk With Thee
TTITLE5=Soho Rythm Kings - Stork Room Stomp
TTITLE6=The Dutch Swing College Band - What A Difference A Day Made
TTITLE7=The Dukes of Dixieland - My Blue Heaven
TTITLE8=Chris Barber - Lord, Lord You've Sure Been Good To Me
TTITLE9=The Dutch Dixie All Stars - Midnight In Moscow
TTITLE10=Max Collie - Doctor Jazz
TTITLE11=The Dukes of Dixieland - Bugle Call Rag
EXTD=YEAR: 2000
EXTT0=
EXTT1=
EXTT2=
EXTT3=
EXTT4=
EXTT5=
EXTT6=
EXTT7=
EXTT8=
EXTT9=
EXTT10=
EXTT11=
PLAYORDER=
